<svg width="24" height="24" viewBox="0 0 24 24" fill="none" xmlns="http://www.w3.org/2000/svg">
<path d="M12 7C9.24 7 7 9.24 7 12C7 14.76 9.24 17 12 17C14.76 17 17 14.76 17 12C17 9.24 14.76 7 12 7ZM2 13H4V11H2V13ZM20 13H22V11H20V13ZM11 2V4H13V2H11ZM11 20V22H13V20H11ZM5.99 4.58L7.4 6L5.99 7.41L4.58 6L5.99 4.58ZM18.01 19.42L16.6 18L18.01 16.59L19.42 18L18.01 19.42ZM19.42 5.99L18.01 4.58L16.6 6L18.01 7.41L19.42 5.99ZM7.4 18L5.99 19.42L4.58 18L5.99 16.59L7.4 18ZM12 9C13.66 9 15 10.34 15 12C15 13.66 13.66 15 12 15C10.34 15 9 13.66 9 12C9 10.34 10.34 9 12 9Z" fill="currentColor"/>
</svg>
