<svg xmlns="http://www.w3.org/2000/svg" height="120" viewBox="0 -960 960 960" width="120" fill="#E0E0E0">
  <path d="M200-120q-33 0-56.5-23.5T120-200v-560q0-33 23.5-56.5T200-840h560q33 0 56.5 23.5T840-760v560q0 33-23.5 56.5T760-120H200Zm0-80h560v-560H200v560Zm80-120h400v-80H280v80Zm0-160h400v-80H280v80Zm0-160h400v-80H280v80ZM200-200v-560 560Z"/>
  <path d="M320-400h320v-80H320v80Zm0-160h320v-80H320v80Z" fill="#BDBDBD"/>
  <circle cx="400" cy="-600" r="40" fill="#E0E0E0"/>
  <path d="M380-620h40v40h-40v-40Z" fill="#BDBDBD"/>
</svg>
