<svg width="24" height="24" viewBox="0 0 24 24" fill="none" xmlns="http://www.w3.org/2000/svg">
  <g stroke="currentColor" stroke-width="1.8" stroke-linecap="round" stroke-linejoin="round">
    <rect x="3.5" y="6" width="4" height="12" rx="1" fill="none"/>
    <rect x="10" y="6" width="4" height="12" rx="1" fill="none"/>
    <rect x="16.5" y="6" width="4" height="12" rx="1" fill="none"/>
    <path d="M7 4.5H5.25C4.01 4.5 3 5.51 3 6.75V9"/>
    <path d="M17 4.5H18.75C19.99 4.5 21 5.51 21 6.75V8.75"/>
    <path d="M19.5 16.5v2.75c0 1.24-1.01 2.25-2.25 2.25H15"/>
    <path d="M4.5 16.5v2.75c0 1.24 1.01 2.25 2.25 2.25H9"/>
    <path d="M15 21L12 18L9 21"/>
    <path d="M9 3L12 6L15 3"/>
  </g>
</svg>
