<svg width="24" height="24" viewBox="0 0 24 24" fill="none" xmlns="http://www.w3.org/2000/svg">
<path d="M19.14 12.94C19.18 12.64 19.2 12.33 19.2 12C19.2 11.67 19.18 11.36 19.14 11.06L21.16 9.48C21.34 9.34 21.39 9.07 21.28 8.87L19.36 5.44C19.24 5.24 19.01 5.17 18.8 5.25L16.38 6.05C16.07 5.66 15.73 5.32 15.34 5.01L15.14 2.5C15.11 2.28 14.93 2.1 14.71 2.1H9.29C9.07 2.1 8.89 2.28 8.86 2.5L8.66 5.01C8.27 5.32 7.93 5.66 7.62 6.05L5.2 5.25C4.99 5.17 4.76 5.24 4.64 5.44L2.72 8.87C2.61 9.07 2.66 9.34 2.84 9.48L4.86 11.06C4.82 11.36 4.8 11.67 4.8 12C4.8 12.33 4.82 12.64 4.86 12.94L2.84 14.52C2.66 14.66 2.61 14.93 2.72 15.13L4.64 18.56C4.76 18.76 4.99 18.83 5.2 18.75L7.62 17.95C7.93 18.34 8.27 18.68 8.66 18.99L8.86 21.5C8.89 21.72 9.07 21.9 9.29 21.9H14.71C14.93 21.9 15.11 21.72 15.14 21.5L15.34 18.99C15.73 18.68 16.07 18.34 16.38 17.95L18.8 18.75C19.01 18.83 19.24 18.76 19.36 18.56L21.28 15.13C21.39 14.93 21.34 14.66 21.16 14.52L19.14 12.94ZM12 15.6C10.02 15.6 8.4 13.98 8.4 12C8.4 10.02 10.02 8.4 12 8.4C13.98 8.4 15.6 10.02 15.6 12C15.6 13.98 13.98 15.6 12 15.6Z" fill="currentColor"/>
</svg>
